name Walk6.mot
datacolumns 19
datarows 27
range 1.70700000 1.73300000
endheader

                time	   L_ground_force_vx	   L_ground_force_vy	   L_ground_force_vz	   L_ground_force_px	   L_ground_force_py	   L_ground_force_pz	   R_ground_force_vx	   R_ground_force_vy	   R_ground_force_vz	   R_ground_force_px	   R_ground_force_py	   R_ground_force_pz	   L_ground_torque_x	   L_ground_torque_y	   L_ground_torque_z	   R_ground_torque_x	   R_ground_torque_y	   R_ground_torque_z	
          1.70700000	          0.00000000	          0.00000000	          0.00000000	          0.00000000	          0.00000000	          0.00000000	         27.67927636	        681.78702133	         41.21669498	         -0.40164505	          0.00000000	         -0.05376344	          0.00000000	          0.00000000	          0.00000000	          0.00000000	         -0.40977519	          0.00000000	
          1.70800000	          0.00000000	          0.00000000	          0.00000000	          0.00000000	          0.00000000	          0.00000000	         27.98072139	        683.11803555	         41.32125519	         -0.40134211	          0.00000000	         -0.05383883	          0.00000000	          0.00000000	          0.00000000	          0.00000000	         -0.39938815	          0.00000000	
          1.70900000	          0.00000000	          0.00000000	          0.00000000	          0.00000000	          0.00000000	          0.00000000	         28.29766194	        684.43919714	         41.42120764	         -0.40103667	          0.00000000	         -0.05393631	          0.00000000	          0.00000000	          0.00000000	          0.00000000	         -0.39816883	          0.00000000	
          1.71000000	          0.00000000	          0.00000000	          0.00000000	          0.00000000	          0.00000000	          0.00000000	         28.64898515	        685.77447908	         41.52490073	         -0.40070801	          0.00000000	         -0.05403012	          0.00000000	          0.00000000	          0.00000000	          0.00000000	         -0.40607393	          0.00000000	
          1.71100000	          0.00000000	          0.00000000	          0.00000000	          0.00000000	          0.00000000	          0.00000000	         29.03793431	        687.10725524	         41.63468795	         -0.40035448	          0.00000000	         -0.05409874	          0.00000000	          0.00000000	          0.00000000	          0.00000000	         -0.41988878	          0.00000000	
          1.71200000	          0.00000000	          0.00000000	          0.00000000	          0.00000000	          0.00000000	          0.00000000	         29.44562450	        688.40248115	         41.74861607	         -0.39998759	          0.00000000	         -0.05412636	          0.00000000	          0.00000000	          0.00000000	          0.00000000	         -0.43568409	          0.00000000	
          1.71300000	          0.00000000	          0.00000000	          0.00000000	          0.00000000	          0.00000000	          0.00000000	         29.84843481	        689.66318706	         41.86455790	         -0.39960741	          0.00000000	         -0.05411109	          0.00000000	          0.00000000	          0.00000000	          0.00000000	         -0.44978880	          0.00000000	
          1.71400000	          0.00000000	          0.00000000	          0.00000000	          0.00000000	          0.00000000	          0.00000000	         30.23840657	        690.93359234	         41.98587275	         -0.39919708	          0.00000000	         -0.05407602	          0.00000000	          0.00000000	          0.00000000	          0.00000000	         -0.45709473	          0.00000000	
          1.71500000	          0.00000000	          0.00000000	          0.00000000	          0.00000000	          0.00000000	          0.00000000	         30.61909339	        692.24541558	         42.12308801	         -0.39875086	          0.00000000	         -0.05405640	          0.00000000	          0.00000000	          0.00000000	          0.00000000	         -0.45128824	          0.00000000	
          1.71600000	          0.00000000	          0.00000000	          0.00000000	          0.00000000	          0.00000000	          0.00000000	         30.99087318	        693.59059055	         42.28368498	         -0.39829519	          0.00000000	         -0.05407587	          0.00000000	          0.00000000	          0.00000000	          0.00000000	         -0.43024830	          0.00000000	
          1.71700000	          0.00000000	          0.00000000	          0.00000000	          0.00000000	          0.00000000	          0.00000000	         31.35087153	        694.93898686	         42.46204009	         -0.39786845	          0.00000000	         -0.05413447	          0.00000000	          0.00000000	          0.00000000	          0.00000000	         -0.40177255	          0.00000000	
          1.71800000	          0.00000000	          0.00000000	          0.00000000	          0.00000000	          0.00000000	          0.00000000	         31.70063645	        696.25829498	         42.64209653	         -0.39749044	          0.00000000	         -0.05421035	          0.00000000	          0.00000000	          0.00000000	          0.00000000	         -0.38062058	          0.00000000	
          1.71900000	          0.00000000	          0.00000000	          0.00000000	          0.00000000	          0.00000000	          0.00000000	         32.04688702	        697.52395098	         42.80589744	         -0.39715914	          0.00000000	         -0.05427371	          0.00000000	          0.00000000	          0.00000000	          0.00000000	         -0.37635023	          0.00000000	
          1.72000000	          0.00000000	          0.00000000	          0.00000000	          0.00000000	          0.00000000	          0.00000000	         32.39998419	        698.72566508	         42.94243503	         -0.39686206	          0.00000000	         -0.05430107	          0.00000000	          0.00000000	          0.00000000	          0.00000000	         -0.38492458	          0.00000000	
          1.72100000	          0.00000000	          0.00000000	          0.00000000	          0.00000000	          0.00000000	          0.00000000	         32.77043348	        699.88476555	         43.05651103	         -0.39658104	          0.00000000	         -0.05428521	          0.00000000	          0.00000000	          0.00000000	          0.00000000	         -0.39339438	          0.00000000	
          1.72200000	          0.00000000	          0.00000000	          0.00000000	          0.00000000	          0.00000000	          0.00000000	         33.15918053	        701.05998750	         43.16486461	         -0.39629454	          0.00000000	         -0.05424697	          0.00000000	          0.00000000	          0.00000000	          0.00000000	         -0.39171404	          0.00000000	
          1.72300000	          0.00000000	          0.00000000	          0.00000000	          0.00000000	          0.00000000	          0.00000000	         33.55793008	        702.30519238	         43.27861400	         -0.39598288	          0.00000000	         -0.05423146	          0.00000000	          0.00000000	          0.00000000	          0.00000000	         -0.37989977	          0.00000000	
          1.72400000	          0.00000000	          0.00000000	          0.00000000	          0.00000000	          0.00000000	          0.00000000	         33.95883987	        703.62815976	         43.39662182	         -0.39563371	          0.00000000	         -0.05427641	          0.00000000	          0.00000000	          0.00000000	          0.00000000	         -0.36499509	          0.00000000	
          1.72500000	          0.00000000	          0.00000000	          0.00000000	          0.00000000	          0.00000000	          0.00000000	         34.35515688	        704.99861642	         43.51423903	         -0.39524643	          0.00000000	         -0.05438405	          0.00000000	          0.00000000	          0.00000000	          0.00000000	         -0.35217323	          0.00000000	
          1.72600000	          0.00000000	          0.00000000	          0.00000000	          0.00000000	          0.00000000	          0.00000000	         34.74273648	        706.37292322	         43.62981368	         -0.39483321	          0.00000000	         -0.05452897	          0.00000000	          0.00000000	          0.00000000	          0.00000000	         -0.33964510	          0.00000000	
          1.72700000	          0.00000000	          0.00000000	          0.00000000	          0.00000000	          0.00000000	          0.00000000	         35.12350158	        707.71505284	         43.74607039	         -0.39441339	          0.00000000	         -0.05468495	          0.00000000	          0.00000000	          0.00000000	          0.00000000	         -0.32356245	          0.00000000	
          1.72800000	          0.00000000	          0.00000000	          0.00000000	          0.00000000	          0.00000000	          0.00000000	         35.49857388	        709.01883170	         43.86832468	         -0.39400297	          0.00000000	         -0.05483323	          0.00000000	          0.00000000	          0.00000000	          0.00000000	         -0.30579007	          0.00000000	
          1.72900000	          0.00000000	          0.00000000	          0.00000000	          0.00000000	          0.00000000	          0.00000000	         35.86811787	        710.30446231	         43.99920892	         -0.39360571	          0.00000000	         -0.05495388	          0.00000000	          0.00000000	          0.00000000	          0.00000000	         -0.29279703	          0.00000000	
          1.73000000	          0.00000000	          0.00000000	          0.00000000	          0.00000000	          0.00000000	          0.00000000	         36.24224706	        711.58113661	         44.13840778	         -0.39321398	          0.00000000	         -0.05502907	          0.00000000	          0.00000000	          0.00000000	          0.00000000	         -0.28836652	          0.00000000	
          1.73100000	          0.00000000	          0.00000000	          0.00000000	          0.00000000	          0.00000000	          0.00000000	         36.63706725	        712.83473955	         44.28875626	         -0.39281847	          0.00000000	         -0.05506251	          0.00000000	          0.00000000	          0.00000000	          0.00000000	         -0.29057403	          0.00000000	
          1.73200000	          0.00000000	          0.00000000	          0.00000000	          0.00000000	          0.00000000	          0.00000000	         37.05442201	        714.06015075	         44.45655682	         -0.39241927	          0.00000000	         -0.05508313	          0.00000000	          0.00000000	          0.00000000	          0.00000000	         -0.29445054	          0.00000000	
          1.73300000	          0.00000000	          0.00000000	          0.00000000	          0.00000000	          0.00000000	          0.00000000	         37.47556735	        715.27241981	         44.64424230	         -0.39202994	          0.00000000	         -0.05511779	          0.00000000	          0.00000000	          0.00000000	          0.00000000	         -0.29624032	          0.00000000	
